<svg width="773" height="927" viewBox="0 0 773 927" fill="none" xmlns="http://www.w3.org/2000/svg">
<path fill-rule="evenodd" clip-rule="evenodd" d="M623.069 172.892C610.78 172.892 600.829 162.932 600.829 150.651V0.732666H-1.64111V927H773L772.992 172.884L623.069 172.892ZM132.579 170.79H463.198C475.487 170.79 485.438 180.749 485.438 193.03C485.438 205.319 475.479 215.286 463.198 215.27H132.579C120.29 215.27 110.339 205.304 110.339 193.03C110.339 180.757 120.298 170.79 132.579 170.79ZM638.799 754.646H132.579C120.29 754.646 110.339 744.687 110.339 732.406C110.339 720.117 120.306 710.15 132.595 710.166H638.795C651.084 710.166 661.035 720.133 661.035 732.406C661.035 744.687 651.076 754.646 638.788 754.646H638.799ZM638.799 619.794H132.599C120.31 619.794 110.358 609.835 110.358 597.554C110.358 585.28 120.325 575.314 132.614 575.314H638.815C651.104 575.314 661.055 585.281 661.055 597.554C661.047 609.828 651.088 619.794 638.799 619.794V619.794ZM638.799 484.958H132.599C120.31 484.958 110.358 474.999 110.358 462.718C110.358 450.429 120.325 440.478 132.614 440.478H638.815C651.104 440.478 661.055 450.445 661.055 462.718C661.047 474.984 651.088 484.958 638.799 484.958V484.958ZM638.799 350.114H132.599C120.31 350.114 110.358 340.155 110.358 327.874C110.358 315.585 120.325 305.634 132.614 305.634H638.815C651.104 305.634 661.055 315.601 661.055 327.874C661.047 340.148 651.088 350.114 638.799 350.114V350.114ZM741.542 128.396H645.333V32.1863L741.542 128.396Z" fill="white"/>
</svg>
