<svg width="17" height="25" viewBox="0 0 17 25" fill="none" xmlns="http://www.w3.org/2000/svg">
<path d="M14.7626 9.76V7.02C14.7626 5.35898 14.1028 3.766 12.9283 2.59149C11.7538 1.41698 10.1608 0.757141 8.49979 0.757141C6.83877 0.757141 5.24579 1.41698 4.07128 2.59149C2.89676 3.766 2.23693 5.35898 2.23693 7.02V9.76H0.279785V16.0229C0.279785 20.5554 3.96724 24.2429 8.49979 24.2429C13.0323 24.2429 16.7198 20.5554 16.7198 16.0229V9.76H14.7626ZM3.80264 7.02C3.80264 5.77424 4.29752 4.5795 5.1784 3.69862C6.05929 2.81773 7.25403 2.32286 8.49979 2.32286C9.74555 2.32286 10.9403 2.81773 11.8212 3.69862C12.7021 4.5795 13.1969 5.77424 13.1969 7.02V9.76H3.80264V7.02ZM15.1541 16.0229C15.1541 19.692 12.1689 22.6771 8.49979 22.6771C4.83063 22.6771 1.8455 19.692 1.8455 16.0229V11.3257H15.1541V16.0229Z" fill="white" fill-opacity="0.6"/>
</svg>
