<svg width="24" height="24" viewBox="0 0 24 24" fill="none" xmlns="http://www.w3.org/2000/svg">
<path d="M15.02 3.01C14.1523 2.34948 13.0905 1.99439 12 2C9.24 2 7 4.24 7 7C7 9.76 9.24 12 12 12C14.76 12 17 9.76 17 7" stroke="#FDBE44" stroke-width="1.5" stroke-linecap="round" stroke-linejoin="round"/>
<path d="M19.211 15.741L15.671 19.281C15.531 19.421 15.401 19.681 15.371 19.871L15.181 21.221C15.111 21.711 15.451 22.051 15.941 21.981L17.291 21.791C17.481 21.761 17.751 21.631 17.881 21.491L21.421 17.951C22.031 17.341 22.321 16.631 21.421 15.731C20.531 14.841 19.821 15.131 19.211 15.741Z" stroke="#FDBE44" stroke-width="1.5" stroke-miterlimit="10" stroke-linecap="round" stroke-linejoin="round"/>
<path d="M18.7 16.25C19 17.33 19.84 18.17 20.92 18.47" stroke="#FDBE44" stroke-width="1.5" stroke-miterlimit="10" stroke-linecap="round" stroke-linejoin="round"/>
<path d="M3.41003 22C3.41003 18.13 7.26003 15 12 15C13.04 15 14.04 15.15 14.97 15.43" stroke="#FDBE44" stroke-width="1.5" stroke-linecap="round" stroke-linejoin="round"/>
</svg>
